Normalized EMG Linear Envelopes
nRows=32
nColumns=17

endheader
time	        VM	        VL	        RF	       GRA	        TA	   ADDLONG	   SEMIMEM	      BFLH	        GM	        GL	       TFL	   GLUTMAX	   GLUTMED	      PIRI	    OBTINT	        QF	
1.525	  0.474297	  0.331045	  0.089121	  0.346657	  0.167293	  0.162948	  0.351987	  0.466447	  0.538917	  0.608733	  0.093661	  0.289054	  0.137305	  0.463856	  0.996342	  0.711191	
1.5255	  0.468684	  0.327588	  0.088822	  0.347609	  0.166642	  0.164848	  0.350923	  0.466835	  0.538467	  0.611440	  0.093922	  0.284289	  0.136745	  0.462199	  0.991983	  0.705566	
1.526	  0.463046	  0.324112	  0.088515	  0.348598	  0.166006	  0.166792	  0.349880	  0.467209	  0.537965	  0.614053	  0.094182	  0.279542	  0.136189	  0.460478	  0.987441	  0.699960	
1.5265	  0.457382	  0.320617	  0.088200	  0.349624	  0.165386	  0.168781	  0.348858	  0.467566	  0.537414	  0.616568	  0.094443	  0.274813	  0.135641	  0.458695	  0.982718	  0.694377	
1.527	  0.451697	  0.317102	  0.087878	  0.350686	  0.164781	  0.170814	  0.347854	  0.467905	  0.536813	  0.618983	  0.094703	  0.270106	  0.135100	  0.456852	  0.977818	  0.688817	
1.5275	  0.445991	  0.313569	  0.087548	  0.351786	  0.164190	  0.172891	  0.346869	  0.468226	  0.536163	  0.621295	  0.094965	  0.265420	  0.134567	  0.454950	  0.972746	  0.683283	
1.528	  0.440266	  0.310018	  0.087210	  0.352921	  0.163613	  0.175012	  0.345900	  0.468526	  0.535463	  0.623502	  0.095227	  0.260759	  0.134043	  0.452991	  0.967506	  0.677777	
1.5285	  0.434524	  0.306448	  0.086863	  0.354092	  0.163050	  0.177177	  0.344945	  0.468805	  0.534715	  0.625600	  0.095490	  0.256123	  0.133529	  0.450976	  0.962102	  0.672300	
1.529	  0.428768	  0.302862	  0.086508	  0.355299	  0.162499	  0.179386	  0.344005	  0.469062	  0.533918	  0.627585	  0.095755	  0.251514	  0.133026	  0.448908	  0.956538	  0.666854	
1.5295	  0.422998	  0.299258	  0.086146	  0.356540	  0.161959	  0.181639	  0.343076	  0.469294	  0.533073	  0.629456	  0.096021	  0.246934	  0.132535	  0.446787	  0.950821	  0.661442	
1.53	  0.417216	  0.295638	  0.085775	  0.357816	  0.161432	  0.183936	  0.342157	  0.469500	  0.532181	  0.631209	  0.096289	  0.242383	  0.132056	  0.444615	  0.944954	  0.656064	
1.5305	  0.411425	  0.292001	  0.085396	  0.359126	  0.160914	  0.186276	  0.341247	  0.469679	  0.531242	  0.632841	  0.096559	  0.237864	  0.131590	  0.442393	  0.938942	  0.650723	
1.531	  0.405627	  0.288349	  0.085009	  0.360470	  0.160406	  0.188659	  0.340344	  0.469827	  0.530256	  0.634348	  0.096831	  0.233377	  0.131138	  0.440122	  0.932791	  0.645420	
1.5315	  0.399822	  0.284681	  0.084615	  0.361846	  0.159907	  0.191084	  0.339445	  0.469944	  0.529223	  0.635727	  0.097106	  0.228924	  0.130700	  0.437804	  0.926506	  0.640157	
1.532	  0.394014	  0.280999	  0.084215	  0.363255	  0.159416	  0.193552	  0.338549	  0.470028	  0.528143	  0.636975	  0.097383	  0.224505	  0.130278	  0.435440	  0.920093	  0.634935	
1.5325	  0.388204	  0.277304	  0.083808	  0.364695	  0.158932	  0.196062	  0.337654	  0.470075	  0.527016	  0.638090	  0.097663	  0.220123	  0.129871	  0.433031	  0.913556	  0.629757	
1.533	  0.382393	  0.273596	  0.083394	  0.366165	  0.158454	  0.198614	  0.336757	  0.470084	  0.525841	  0.639067	  0.097945	  0.215777	  0.129480	  0.430580	  0.906903	  0.624623	
1.5335	  0.376585	  0.269878	  0.082976	  0.367665	  0.157982	  0.201207	  0.335856	  0.470052	  0.524618	  0.639905	  0.098231	  0.211469	  0.129107	  0.428089	  0.900138	  0.619535	
1.534	  0.370780	  0.266149	  0.082552	  0.369195	  0.157514	  0.203839	  0.334949	  0.469978	  0.523347	  0.640600	  0.098520	  0.207200	  0.128751	  0.425559	  0.893268	  0.614495	
1.5345	  0.364981	  0.262413	  0.082123	  0.370751	  0.157051	  0.206512	  0.334033	  0.469857	  0.522027	  0.641152	  0.098812	  0.202970	  0.128413	  0.422992	  0.886297	  0.609503	
1.535	  0.359191	  0.258670	  0.081690	  0.372335	  0.156590	  0.209224	  0.333107	  0.469689	  0.520657	  0.641556	  0.099108	  0.198781	  0.128093	  0.420391	  0.879233	  0.604561	
1.5355	  0.353411	  0.254922	  0.081254	  0.373943	  0.156131	  0.211975	  0.332167	  0.469469	  0.519237	  0.641812	  0.099407	  0.194633	  0.127792	  0.417758	  0.872080	  0.599670	
1.536	  0.347643	  0.251171	  0.080815	  0.375577	  0.155674	  0.214764	  0.331212	  0.469197	  0.517767	  0.641917	  0.099710	  0.190526	  0.127511	  0.415094	  0.864843	  0.594830	
1.5365	  0.341891	  0.247418	  0.080373	  0.377233	  0.155218	  0.217589	  0.330239	  0.468869	  0.516245	  0.641867	  0.100017	  0.186462	  0.127250	  0.412402	  0.857528	  0.590042	
1.537	  0.336155	  0.243665	  0.079930	  0.378911	  0.154761	  0.220451	  0.329246	  0.468483	  0.514673	  0.641662	  0.100328	  0.182441	  0.127009	  0.409684	  0.850138	  0.585308	
1.5375	  0.330438	  0.239912	  0.079485	  0.380610	  0.154303	  0.223348	  0.328230	  0.468036	  0.513048	  0.641299	  0.100644	  0.178464	  0.126789	  0.406942	  0.842680	  0.580627	
1.538	  0.324742	  0.236162	  0.079040	  0.382329	  0.153844	  0.226280	  0.327190	  0.467527	  0.511372	  0.640776	  0.100963	  0.174531	  0.126590	  0.404177	  0.835157	  0.575999	
1.5385	  0.319070	  0.232416	  0.078595	  0.384066	  0.153383	  0.229244	  0.326123	  0.466951	  0.509643	  0.640094	  0.101287	  0.170642	  0.126413	  0.401392	  0.827574	  0.571426	
1.539	  0.313422	  0.228675	  0.078150	  0.385821	  0.152920	  0.232241	  0.325026	  0.466308	  0.507861	  0.639252	  0.101615	  0.166798	  0.126257	  0.398587	  0.819935	  0.566908	
1.5395	  0.307801	  0.224940	  0.077706	  0.387593	  0.152454	  0.235269	  0.323898	  0.465595	  0.506026	  0.638250	  0.101948	  0.162999	  0.126124	  0.395766	  0.812246	  0.562444	
1.54	  0.302209	  0.221213	  0.077265	  0.389381	  0.151986	  0.238327	  0.322737	  0.464809	  0.504137	  0.637090	  0.102285	  0.159246	  0.126014	  0.392928	  0.804510	  0.558035	
1.5405	  0.296648	  0.217495	  0.076825	  0.391183	  0.151514	  0.241414	  0.321540	  0.463950	  0.502193	  0.635772	  0.102626	  0.155539	  0.125927	  0.390076	  0.796732	  0.553680	
